<svg xmlns="http://www.w3.org/2000/svg" viewBox="333 179 345 433"><g fill="none"><path fill="#fff" d="M342 180h327c4.4183 0 8 3.58172 8 8v415c0 4.4183-3.5817 8-8 8H342c-4.41828 0-8-3.5817-8-8V188c0-4.41828 3.58172-8 8-8z"/><path stroke="#000" stroke-width="2" d="M342 180h327c4.4183 0 8 3.58172 8 8v415c0 4.4183-3.5817 8-8 8H342c-4.41828 0-8-3.5817-8-8V188c0-4.41828 3.58172-8 8-8z" stroke-linecap="round" stroke-linejoin="round"/><text fill="#000" transform="translate(339 185)"><tspan x="64.54883" y="25" font-family="Arial" font-size="28" font-weight="500" textLength="203.90234">blog_layout.tmpl</tspan></text><path fill="#fff" d="M447 234h117v84c-35.1-10.5-81.9 31.5-117 10.5z"/><path stroke="#000" d="M447 234h117v84c-35.1-10.5-81.9 31.5-117 10.5z" stroke-linecap="round" stroke-linejoin="round"/><text fill="#000" transform="translate(452 272.488)"><tspan x="18.367188" y="14" font-family="Arial" font-size="16" font-weight="500" textLength="70.265625">head.tmpl</tspan></text><path fill="#fff" d="M538 360h117v84c-35.1-10.5-81.9 31.5-117 10.5z"/><path stroke="#000" d="M538 360h117v84c-35.1-10.5-81.9 31.5-117 10.5z" stroke-linecap="round" stroke-linejoin="round"/><text fill="#000" transform="translate(543 398.488)"><tspan x="9.921875" y="14" font-family="Arial" font-size="16" font-weight="500" textLength="87.15625">content.tmpl</tspan></text><path fill="#fff" d="M357 360h117v84c-35.1-10.5-81.9 31.5-117 10.5z"/><path stroke="#000" d="M357 360h117v84c-35.1-10.5-81.9 31.5-117 10.5z" stroke-linecap="round" stroke-linejoin="round"/><text fill="#000" transform="translate(362 398.488)"><tspan x="21.48828" y="14" font-family="Arial" font-size="16" font-weight="500" textLength="64.02344">side.tmpl</tspan></text><path fill="#fff" d="M447 486h117v84c-35.1-10.5-81.9 31.5-117 10.5z"/><path stroke="#000" d="M447 486h117v84c-35.1-10.5-81.9 31.5-117 10.5z" stroke-linecap="round" stroke-linejoin="round"/><text fill="#000" transform="translate(452 524.488)"><tspan x="22.820312" y="14" font-family="Arial" font-size="16" font-weight="500" textLength="61.359375">foot.tmpl</tspan></text></g></svg>