<svg xmlns="http://www.w3.org/2000/svg" viewBox="333 179 345 433"><g fill="none"><path fill="#fff" d="M342 180h327c4.4183 0 8 3.58172 8 8v415c0 4.4183-3.5817 8-8 8H342c-4.41828 0-8-3.5817-8-8V188c0-4.41828 3.58172-8 8-8z"/><path stroke="#000" stroke-width="2" d="M342 180h327c4.4183 0 8 3.58172 8 8v415c0 4.4183-3.5817 8-8 8H342c-4.41828 0-8-3.5817-8-8V188c0-4.41828 3.58172-8 8-8z" stroke-linecap="round" stroke-linejoin="round"/><text fill="#000" transform="translate(339 185)"><tspan x="46.720703" y="25" font-family="Arial" font-size="28" font-weight="bold" textLength="239.5586">Bucket o’ Content</tspan> <tspan x="68.13086" y="49.916016" font-family="Arial" font-size="20" font-weight="bold" textLength="196.73828">(files, database, etc.)</tspan></text><path fill="#fff" d="M377 287h117v84c-35.1-10.5-81.9 31.5-117 10.5z"/><path stroke="#000" d="M377 287h117v84c-35.1-10.5-81.9 31.5-117 10.5z" stroke-linecap="round" stroke-linejoin="round"/><text fill="#000" transform="translate(382 325.488)"><tspan x="29.04297" y="14" font-family="Arial" font-size="16" font-weight="500" textLength="48.91406">foo.md</tspan></text><path fill="#fff" d="M414 472h117v84c-35.1-10.5-81.9 31.5-117 10.5z"/><path stroke="#000" d="M414 472h117v84c-35.1-10.5-81.9 31.5-117 10.5z" stroke-linecap="round" stroke-linejoin="round"/><text fill="#000" transform="translate(419 510.488)"><tspan x="26.816406" y="14" font-family="Arial" font-size="16" font-weight="500" textLength="53.36719">bop.md</tspan></text><path fill="#fff" d="M525 343h117v84c-35.1-10.5-81.9 31.5-117 10.5z"/><path stroke="#000" d="M525 343h117v84c-35.1-10.5-81.9 31.5-117 10.5z" stroke-linecap="round" stroke-linejoin="round"/><text fill="#000" transform="translate(530 381.488)"><tspan x="27.265625" y="14" font-family="Arial" font-size="16" font-weight="500" textLength="52.46875">baz.md</tspan></text></g></svg>