<svg xmlns="http://www.w3.org/2000/svg" viewBox="333 179 506 433"><defs><marker id="a" orient="auto" overflow="visible" viewBox="-1 -4 10 8" markerWidth="10" markerHeight="8" color="#b4b4b4"><path fill="currentColor" stroke="currentColor" d="M8 0L0-3v6z"/></marker><marker id="b" orient="auto" overflow="visible" viewBox="-1 -4 10 8" markerWidth="10" markerHeight="8" color="#b4b4b4"><path fill="currentColor" stroke="currentColor" d="M8 0L0-3v6z"/></marker></defs><g fill="none"><path fill="#fff" d="M342 180h327c4.4183 0 8 3.58172 8 8v415c0 4.4183-3.5817 8-8 8H342c-4.41828 0-8-3.5817-8-8V188c0-4.41828 3.58172-8 8-8z"/><path stroke="#000" stroke-width="2" d="M342 180h327c4.4183 0 8 3.58172 8 8v415c0 4.4183-3.5817 8-8 8H342c-4.41828 0-8-3.5817-8-8V188c0-4.41828 3.58172-8 8-8z" stroke-linecap="round" stroke-linejoin="round"/><text fill="#000" transform="translate(339 185)"><tspan x="60.65918" y="25" font-family="Arial" font-size="28" font-weight="500" textLength="211.68164">The Smushening</tspan> <tspan x="29.219727" y="49.916016" font-family="Arial" font-size="20" font-weight="500" textLength="274.56055">(server side, prerendered, etc.)</tspan></text><path fill="#fff" d="M538 256h117v84c-35.1-10.5-81.9 31.5-117 10.5z"/><path stroke="#000" d="M538 256h117v84c-35.1-10.5-81.9 31.5-117 10.5z" stroke-linecap="round" stroke-linejoin="round"/><text fill="#000" transform="translate(543 294.488)"><tspan x="29.04297" y="14" font-family="Arial" font-size="16" font-weight="500" textLength="48.91406">foo.md</tspan></text><path fill="#fff" d="M538 374.5h117v84C619.9 448 573.1 490 538 469z"/><path stroke="#000" d="M538 374.5h117v84C619.9 448 573.1 490 538 469z" stroke-linecap="round" stroke-linejoin="round"/><text fill="#000" transform="translate(543 412.988)"><tspan x="27.265625" y="14" font-family="Arial" font-size="16" font-weight="500" textLength="52.46875">baz.md</tspan></text><path fill="#fff" d="M538 493h117v84c-35.1-10.5-81.9 31.5-117 10.5z"/><path stroke="#000" d="M538 493h117v84c-35.1-10.5-81.9 31.5-117 10.5z" stroke-linecap="round" stroke-linejoin="round"/><text fill="#000" transform="translate(543 531.488)"><tspan x="26.816406" y="14" font-family="Arial" font-size="16" font-weight="500" textLength="53.36719">bop.md</tspan></text><path fill="#fff" d="M354 374.5h140v84C452 448 396 490 354 469z"/><path stroke="#000" d="M354 374.5h140v84C452 448 396 490 354 469z" stroke-linecap="round" stroke-linejoin="round"/><text fill="#000" transform="translate(359 412.988)"><tspan x="6.7421875" y="14" font-family="Arial" font-size="16" font-weight="500" textLength="116.51562">blog_layout.tmpl</tspan></text><path stroke="#b4b4b4" d="M494.5 427h33.1m-33.1879-48.37007l35.0157-24.05423m-60.6822 103.16257l60.6822 41.68603" marker-end="url(#a)" stroke-linecap="round" stroke-linejoin="round"/><path fill="#fff" d="M837 287.0695c0-9.94665-1.27-11.17725-10.547-21.021l-.098-.10185C817.029 256 816.932 256 807.361 256H737v105h100v-73.9305z"/><path stroke="#000" d="M837 287.0695c0-9.94665-1.27-11.17725-10.547-21.021l-.098-.10185C817.029 256 816.932 256 807.361 256H737v105h100v-73.9305zm0-.5124c0-9.43425-.098-9.43425-20.068-9.43425 0-21.01995 0-21.12285-8.985-21.12285" stroke-linecap="round" stroke-linejoin="round"/><text fill="#000" transform="translate(742 299.738)"><tspan x="16.542969" y="14" font-family="Arial" font-size="16" font-weight="500" textLength="56.91406">foo.html</tspan></text><path fill="#fff" d="M838 524.0695c0-9.94665-1.2827-11.17725-10.6525-21.021l-.09895-.10185C817.8293 493 817.7313 493 808.0646 493H737v105h101v-73.9305z"/><path stroke="#000" d="M838 524.0695c0-9.94665-1.2827-11.17725-10.6525-21.021l-.09895-.10185C817.8293 493 817.7313 493 808.0646 493H737v105h101v-73.9305zm0-.5124c0-9.43425-.099-9.43425-20.2687-9.43425 0-21.01995 0-21.12285-9.0748-21.12285" stroke-linecap="round" stroke-linejoin="round"/><text fill="#000" transform="translate(742 536.738)"><tspan x="14.816406" y="14" font-family="Arial" font-size="16" font-weight="500" textLength="61.36719">bop.html</tspan></text><path fill="#fff" d="M838 406.5695c0-9.94665-1.27-11.17725-10.547-21.021l-.098-.10185C818.029 375.5 817.932 375.5 808.361 375.5H738v105h100v-73.9305z"/><path stroke="#000" d="M838 406.5695c0-9.94665-1.27-11.17725-10.547-21.021l-.098-.10185C818.029 375.5 817.932 375.5 808.361 375.5H738v105h100v-73.9305zm0-.5124c0-9.43425-.098-9.43425-20.068-9.43425 0-21.01995 0-21.12285-8.985-21.12285" stroke-linecap="round" stroke-linejoin="round"/><text fill="#000" transform="translate(743 419.238)"><tspan x="14.765625" y="14" font-family="Arial" font-size="16" font-weight="500" textLength="60.46875">baz.html</tspan></text><path stroke="#b4b4b4" d="M655.5 308.50002h71.1M655.5 427.3081l72.1001.3765" marker-end="url(#a)" stroke-linecap="round" stroke-linejoin="round"/><path stroke="#b4b4b4" d="M655.5 545.5h71.1" marker-end="url(#b)" stroke-linecap="round" stroke-linejoin="round"/></g></svg>